<svg width="15" height="13" viewBox="0 0 15 13" fill="none" xmlns="http://www.w3.org/2000/svg">
<path d="M15 6.15873C15 6.5039 14.7435 6.78917 14.4107 6.83432L14.3182 6.84054L2.33273 6.84L6.66271 11.1523C6.92955 11.418 6.93048 11.8497 6.66479 12.1165C6.42325 12.3591 6.04452 12.3819 5.77717 12.1845L5.70056 12.1186L0.200558 6.64225C0.165383 6.60722 0.134833 6.56932 0.108904 6.52929C0.101581 6.51724 0.0941257 6.50492 0.0870581 6.49234C0.0805569 6.48157 0.0746832 6.47037 0.0691414 6.45906C0.0614443 6.4426 0.0539236 6.42559 0.0470953 6.40823C0.0415478 6.39485 0.0369148 6.38184 0.03269 6.36872C0.0276661 6.35245 0.0227861 6.33512 0.0185871 6.31752C0.0154667 6.30523 0.0129948 6.2934 0.0108385 6.28153C0.00780678 6.26387 0.00522614 6.24559 0.00338459 6.22709C0.00179386 6.21298 0.000837326 6.19901 0.000308037 6.18501C0.000171661 6.17653 0 6.16765 0 6.15873L0.000341415 6.13231C0.000864029 6.11893 0.00177765 6.10556 0.00308418 6.09222L0 6.15873C0 6.1157 0.00398445 6.07361 0.0116062 6.03279C0.0133743 6.02304 0.01548 6.01303 0.0178127 6.00307C0.0226555 5.98254 0.0282526 5.96278 0.0346975 5.9434C0.0378609 5.93377 0.0415459 5.92349 0.0454845 5.91328C0.0534525 5.89276 0.0621128 5.87321 0.07164 5.85416C0.076066 5.8452 0.0810223 5.83582 0.0862131 5.82654C0.0947342 5.81139 0.103512 5.797 0.112793 5.78298C0.119342 5.77305 0.126594 5.76271 0.134166 5.75254L0.140066 5.74469C0.158436 5.72069 0.178364 5.69794 0.199699 5.67661L0.200518 5.67597L5.70052 0.198703C5.96733 -0.0670119 6.39904 -0.0661181 6.66475 0.200699C6.90631 0.44326 6.92753 0.82209 6.72893 1.0886L6.66276 1.16493L2.33455 5.47636L14.3182 5.47691C14.6947 5.47691 15 5.78217 15 6.15873Z" fill="#FF6600"/>
</svg>
