<svg width="17" height="15" viewBox="0 0 17 15" fill="none" xmlns="http://www.w3.org/2000/svg">
<path d="M16.875 7.17857C16.875 7.56689 16.5864 7.88782 16.212 7.93861L16.108 7.94561L2.62432 7.945L7.49555 12.7963C7.79575 13.0952 7.79679 13.5809 7.49789 13.8811C7.22616 14.154 6.80008 14.1797 6.49932 13.9575L6.41313 13.8834L0.225628 7.72253C0.186058 7.68313 0.151688 7.64048 0.122519 7.59545C0.114279 7.5819 0.105892 7.56803 0.0979404 7.55389C0.0906277 7.54176 0.0840187 7.52917 0.0777836 7.51644C0.0691261 7.49792 0.0606651 7.47879 0.0529823 7.45926C0.0467415 7.44421 0.0415306 7.42957 0.0367775 7.41481C0.031126 7.39651 0.0256348 7.37701 0.0209122 7.35721C0.0174007 7.34338 0.0146198 7.33008 0.0121937 7.31672C0.00878334 7.29685 0.00588036 7.27629 0.00380898 7.25548C0.00201988 7.23961 0.00094223 7.22388 0.000347137 7.20814C0.00019455 7.1986 0 7.1886 0 7.17857L0.000385284 7.14885C0.000972748 7.1338 0.00200081 7.11876 0.00347137 7.10375L0 7.17857C0 7.13016 0.00448418 7.08281 0.0130577 7.03689C0.0150471 7.02592 0.017416 7.01466 0.0200405 7.00345C0.0254879 6.98036 0.031786 6.95813 0.0390358 6.93633C0.0425949 6.9255 0.0467396 6.91392 0.0511703 6.90244C0.0601349 6.87936 0.0698776 6.85736 0.080595 6.83592C0.0855751 6.82585 0.0911522 6.8153 0.0969906 6.80485C0.106577 6.78782 0.116451 6.77163 0.126894 6.75585C0.13426 6.74468 0.142418 6.73305 0.150938 6.72161L0.157576 6.71277C0.178242 6.68577 0.200661 6.66019 0.224663 6.63618L0.225582 6.63547L6.41308 0.473541C6.71325 0.174612 7.19892 0.175617 7.49785 0.475786C7.7696 0.748668 7.79347 1.17485 7.57005 1.47467L7.4956 1.56055L2.62636 6.41091L16.108 6.41152C16.5316 6.41152 16.875 6.75494 16.875 7.17857Z" fill="white"/>
</svg>
