<svg width="40" height="43" viewBox="0 0 40 43" fill="none" xmlns="http://www.w3.org/2000/svg">
<path d="M13.968 39.5228V33.0855C13.968 31.4422 15.3098 30.1101 16.9651 30.1101H23.016C23.8109 30.1101 24.5733 30.4236 25.1353 30.9816C25.6974 31.5396 26.0132 32.2964 26.0132 33.0855V39.5228C26.0082 40.206 26.278 40.8629 26.7629 41.3477C27.2477 41.8326 27.9075 42.1053 28.5957 42.1053H32.7238C34.6519 42.1102 36.5026 41.3534 37.8677 40.0017C39.2328 38.65 40 36.8147 40 34.9007V16.5618C40 15.0157 39.3096 13.5491 38.115 12.5572L24.0716 1.42288C21.6288 -0.529344 18.1287 -0.466311 15.7587 1.57259L2.03582 12.5572C0.784717 13.5199 0.0369522 14.9908 0 16.5618V34.882C0 38.8713 3.25765 42.1053 7.27615 42.1053H11.3101C12.7394 42.1053 13.901 40.9605 13.9114 39.5415L13.968 39.5228Z" fill="white"/>
</svg>
