<svg width="40" height="43" viewBox="0 0 40 43" fill="none" xmlns="http://www.w3.org/2000/svg">
<path fill-rule="evenodd" clip-rule="evenodd" d="M22.8624 27.9841C25.2117 27.9841 27.1239 29.8893 27.1239 32.2313V38.2544C27.1239 38.7577 27.5259 39.1611 28.041 39.1728H31.76C34.6907 39.1728 37.0732 36.8113 37.0732 33.9094V16.8267C37.0595 15.828 36.5854 14.8881 35.7717 14.2635L22.9073 3.96765C21.1805 2.59501 18.7649 2.59501 17.0322 3.97157L4.25561 14.2596C3.41073 14.9038 2.93659 15.8437 2.92683 16.86V33.9094C2.92683 36.8113 5.30927 39.1728 8.24 39.1728H11.9941C12.5229 39.1728 12.9522 38.7518 12.9522 38.2349C12.9522 38.1213 12.9659 38.0077 12.9893 37.9V32.2313C12.9893 29.903 14.8898 27.9997 17.2215 27.9841H22.8624ZM31.76 42.11H28.0059C25.8556 42.0591 24.1971 40.3653 24.1971 38.2544V32.2313C24.1971 31.5087 23.598 30.9213 22.8624 30.9213H17.2312C16.5112 30.9252 15.9161 31.5146 15.9161 32.2313V38.2349C15.9161 38.3817 15.8966 38.5227 15.8556 38.6559C15.6449 40.5944 13.9941 42.11 11.9941 42.11H8.24C3.69561 42.11 0 38.4307 0 33.9094V16.8463C0.0195122 14.8999 0.913171 13.118 2.45659 11.9451L15.2078 1.67469C18.0156 -0.557576 21.9278 -0.557576 24.7298 1.67077L37.5727 11.9509C39.081 13.1043 39.9746 14.8823 40 16.8051V33.9094C40 38.4307 36.3044 42.11 31.76 42.11Z" fill="white"/>
</svg>
