<svg width="28" height="27" viewBox="0 0 28 27" fill="none" xmlns="http://www.w3.org/2000/svg">
<path fill-rule="evenodd" clip-rule="evenodd" d="M12.6904 0C16.0252 0 18.7384 2.6865 18.7384 5.9886V7.2468C18.7384 7.8057 18.2803 8.2593 17.7158 8.2593C17.1514 8.2593 16.6933 7.8057 16.6933 7.2468V5.9886C16.6933 3.8016 14.8977 2.025 12.6904 2.025H6.04389C3.8393 2.025 2.04508 3.8016 2.04508 5.9886V21.0127C2.04508 23.1984 3.8393 24.975 6.04389 24.975H12.7054C14.9032 24.975 16.6933 23.2038 16.6933 21.0276V19.7546C16.6933 19.1957 17.1514 18.7421 17.7158 18.7421C18.2803 18.7421 18.7384 19.1957 18.7384 19.7546V21.0276C18.7384 24.3216 16.0307 27 12.7054 27H6.04389C2.71178 27 0 24.3148 0 21.0127V5.9886C0 2.6865 2.71178 0 6.04389 0H12.6904ZM23.7067 8.8479L27.6987 12.7832C27.7343 12.8181 27.7662 12.8545 27.7954 12.893L27.6987 12.7832C27.747 12.8303 27.79 12.8818 27.8272 12.9368C27.8436 12.9617 27.8595 12.9874 27.8741 13.0139C27.886 13.0346 27.897 13.0561 27.9071 13.0781C27.9157 13.0975 27.924 13.1168 27.9317 13.1365C27.9419 13.1622 27.9509 13.1886 27.9588 13.2153C27.9648 13.2363 27.9702 13.2573 27.975 13.2786C27.9811 13.3044 27.9859 13.3303 27.9897 13.3565C27.9918 13.3735 27.9939 13.3913 27.9955 13.4092C27.9987 13.44 28 13.4699 28 13.5L27.993 13.5837L27.9903 13.6373C27.9899 13.6396 27.9896 13.6419 27.9893 13.6442L28 13.5C28 13.5749 27.9916 13.6491 27.9753 13.7213C27.9702 13.7427 27.9648 13.7637 27.9587 13.7844C27.9509 13.8114 27.9419 13.8378 27.9318 13.8638C27.924 13.8832 27.9157 13.9025 27.9069 13.9216C27.897 13.9439 27.886 13.9654 27.8743 13.9866C27.8595 14.0126 27.8436 14.0383 27.8267 14.0633C27.8171 14.0781 27.8066 14.0927 27.7957 14.107C27.7633 14.1493 27.7279 14.1891 27.6896 14.2259L23.7067 18.1534C23.5076 18.3505 23.2459 18.4491 22.9855 18.4491C22.7237 18.4491 22.4606 18.3505 22.2615 18.1507C21.8634 17.7538 21.8648 17.114 22.2642 16.7198L24.5001 14.5125H10.5605C9.99608 14.5125 9.53798 14.0589 9.53798 13.5C9.53798 12.9411 9.99608 12.4875 10.5605 12.4875H24.5028L22.2642 10.2816C21.8648 9.8874 21.862 9.2475 22.2615 8.8506C22.6596 8.4537 23.3059 8.4537 23.7067 8.8479Z" fill="white"/>
</svg>
