<svg width="29" height="27" viewBox="0 0 29 27" fill="none" xmlns="http://www.w3.org/2000/svg">
<path d="M13.4457 0C16.77 0 19.4813 2.66474 19.4813 5.94544V12.3596H11.3067C10.7209 12.3596 10.2577 12.8148 10.2577 13.3906C10.2577 13.953 10.7209 14.4217 11.3067 14.4217H19.4813V20.8224C19.4813 24.1031 16.77 26.7813 13.4185 26.7813H6.78351C3.44559 26.7813 0.734375 24.1165 0.734375 20.8358V5.95883C0.734375 2.66473 3.45921 0 6.79714 0H13.4457ZM22.8827 8.77113C23.2845 8.35602 23.9406 8.35602 24.3423 8.75774L28.2524 12.6544C28.4532 12.8553 28.5604 13.1097 28.5604 13.3909C28.5604 13.6587 28.4532 13.9265 28.2524 14.114L24.3423 18.0107C24.1415 18.2115 23.8737 18.3186 23.6192 18.3186C23.3514 18.3186 23.0836 18.2115 22.8827 18.0107C22.481 17.6089 22.481 16.9528 22.8827 16.5511L25.0252 14.422H19.4815V12.3598H25.0252L22.8827 10.2307C22.481 9.82899 22.481 9.17285 22.8827 8.77113Z" fill="white"/>
</svg>
