<svg width="28" height="24" viewBox="0 0 28 24" fill="none" xmlns="http://www.w3.org/2000/svg">
<path d="M20.8238 0C22.6195 0 24.3469 0.692976 25.6177 1.93641C26.8898 3.17723 27.6008 4.85083 27.6008 6.60289V16.9322C27.6008 20.5801 24.5612 23.535 20.8238 23.535H7.59524C3.85791 23.535 0.81958 20.5801 0.81958 16.9322V6.60289C0.81958 2.95496 3.84452 0 7.59524 0H20.8238ZM22.3383 6.79901C22.0571 6.78463 21.7893 6.87746 21.5871 7.06051L15.5493 11.7675C14.7726 12.3964 13.6599 12.3964 12.8711 11.7675L6.84536 7.06051C6.42891 6.75979 5.85312 6.79901 5.5063 7.15204C5.14475 7.50506 5.10458 8.06729 5.41123 8.45954L5.58664 8.62952L11.6794 13.2711C12.4293 13.8465 13.3385 14.1603 14.2906 14.1603C15.2399 14.1603 16.1652 13.8465 16.9138 13.2711L22.9543 8.55107L23.0614 8.44647C23.3815 8.06729 23.3815 7.51814 23.0467 7.13896C22.8606 6.94415 22.6048 6.82516 22.3383 6.79901Z" fill="white"/>
</svg>
