<svg width="27" height="24" viewBox="0 0 27 24" fill="none" xmlns="http://www.w3.org/2000/svg">
<path fill-rule="evenodd" clip-rule="evenodd" d="M19.2726 0C23.3711 0 26.4615 3.344 26.4615 7.77846V16.2314C26.4615 18.5009 25.6591 20.5514 24.2006 22.0062C22.8923 23.3095 21.1951 24 19.2923 24H7.16554C5.26646 24 3.57046 23.3108 2.26092 22.0062C0.802462 20.5514 0 18.5009 0 16.2314V7.77846C0 3.344 3.09046 0 7.18892 0H19.2726ZM19.2726 1.84615H7.18892C4.09354 1.84615 1.84615 4.34092 1.84615 7.77846V16.2314C1.84615 18.0074 2.45662 19.5938 3.56431 20.6978C4.51938 21.6517 5.76615 22.1538 7.16923 22.1538H19.2726C19.2751 22.1514 19.2849 22.1538 19.2923 22.1538C20.6966 22.1538 21.9422 21.6517 22.8972 20.6978C24.0062 19.5938 24.6154 18.0074 24.6154 16.2314V7.77846C24.6154 4.34092 22.368 1.84615 19.2726 1.84615ZM21.2123 7.54314C21.5335 7.93822 21.4732 8.51914 21.0782 8.8416L15.6086 13.2871C14.9169 13.8361 14.0898 14.1105 13.264 14.1105C12.4406 14.1105 11.6197 13.8385 10.9329 13.2945L5.41292 8.84406C5.01539 8.52406 4.95385 7.94191 5.27262 7.5456C5.59385 7.15052 6.17477 7.08775 6.57108 7.40652L12.0862 11.8521C12.7791 12.401 13.7551 12.401 14.4529 11.8471L19.9126 7.40899C20.3089 7.08529 20.8898 7.14683 21.2123 7.54314Z" fill="white"/>
</svg>
