<svg width="23" height="27" viewBox="0 0 23 27" fill="none" xmlns="http://www.w3.org/2000/svg">
<path d="M8.65461 23.0693C9.32402 22.9276 13.4031 22.9276 14.0725 23.0693C14.6447 23.2014 15.2636 23.5103 15.2636 24.1846C15.2303 24.8266 14.8537 25.3957 14.3333 25.7571C13.6586 26.2831 12.8667 26.6162 12.0389 26.7362C11.5811 26.7956 11.1313 26.7969 10.6895 26.7362C9.86035 26.6162 9.0685 26.2831 8.39509 25.7558C7.8734 25.3957 7.49677 24.8266 7.4635 24.1846C7.4635 23.5103 8.08234 23.2014 8.65461 23.0693ZM11.4426 0C14.228 0 17.0734 1.32168 18.7636 3.51459C19.8602 4.92663 20.3632 6.33732 20.3632 8.53023V9.10071C20.3632 10.7825 20.8077 11.7737 21.7859 12.9161C22.5272 13.7576 22.7641 14.8379 22.7641 16.0099C22.7641 17.1805 22.3795 18.2918 21.6089 19.194C20.6001 20.2757 19.1774 20.9662 17.7255 21.0862C15.6214 21.2656 13.516 21.4166 11.3827 21.4166C9.24803 21.4166 7.14397 21.3263 5.0399 21.0862C3.58662 20.9662 2.16395 20.2757 1.1565 19.194C0.385944 18.2918 0 17.1805 0 16.0099C0 14.8379 0.238221 13.7576 0.97817 12.9161C1.98695 11.7737 2.40217 10.7825 2.40217 9.10071V8.53023C2.40217 6.27798 2.96379 4.80525 4.12029 3.36354C5.83974 1.26099 8.59592 0 11.3228 0H11.4426Z" fill="white"/>
</svg>
