<svg width="188" height="188" viewBox="0 0 188 188" fill="none" xmlns="http://www.w3.org/2000/svg">
<circle r="94" transform="matrix(-1 0 0 1 94 94)" fill="#C4C4C4"/>
<path fill-rule="evenodd" clip-rule="evenodd" d="M94.3189 187.999C113.674 187.935 131.652 182.021 146.576 171.932C147.321 170.107 147.714 168.09 147.714 165.865C147.714 148.28 123.047 143.886 94.1679 143.886C65.1282 143.886 40.6215 148.442 40.6215 166.02C40.6215 168.292 41.0332 170.343 41.8125 172.194C56.6154 182.093 74.3867 187.9 93.5086 187.998C93.7281 187.999 93.9479 187.999 94.1679 187.999C94.2183 187.999 94.2686 187.999 94.3189 187.999ZM58.7337 92.9425C58.7337 73.9619 74.4956 58.749 94.1679 58.749C113.834 58.749 129.602 73.9619 129.602 92.9425C129.602 111.923 113.834 127.142 94.1679 127.142C74.4956 127.142 58.7337 111.923 58.7337 92.9425Z" fill="#5C5C5C"/>
</svg>
